<svg width="1021px" height="833px" viewBox="0 0 1021 833" version="1.1" xmlns="http://www.w3.org/2000/svg" xmlns:xlink="http://www.w3.org/1999/xlink">
  <g transform="translate(510.5, 416.500749) rotate(180) translate(-510.5, -416.500749) translate(0, 0)" fill-rule="nonzero" fill="#000000">
    <path d="M0,802.233271 L123.947941,802.233271 L270.04828,412.456553 C279.542165,386.787902 287.541642,364.283878 294.046712,344.944483 C300.551781,325.605088 306.265693,307.496382 311.188448,290.618364 C323.495336,331.406907 336.329662,371.316386 349.691426,410.346801 C351.449552,415.269556 352.680241,418.609997 353.383492,420.368124 L508.450278,832.824677 L671.956073,412.456553 C679.691831,392.062282 686.988057,371.668011 693.844752,351.27374 C700.701446,330.879469 707.118609,310.309385 713.09624,289.563488 C716.612494,305.38663 721.359437,322.792085 727.337068,341.779855 C733.314699,360.767625 741.050457,383.271648 750.544342,409.291925 L895.589805,802.233271 L1020.59262,802.233271 L721.535249,0 L545.370941,440.41077 C537.635183,460.10179 530.602676,479.001654 524.273419,497.11036 C517.944163,515.219066 512.318157,532.360803 507.395402,548.53557 C501.417771,527.789673 495.440139,508.362372 489.462508,490.253665 C483.484877,472.144959 477.331433,454.82741 471.002177,438.301018 L298.002497,0 L0,802.233271 Z"></path>
  </g>
</svg>
