<svg width="1024px" height="1024px" viewBox="0 0 1024 1024" version="1.1" xmlns="http://www.w3.org/2000/svg" xmlns:xlink="http://www.w3.org/1999/xlink">
  <defs>
    <linearGradient x1="0%" y1="0%" x2="101.999998%" y2="100.999999%" id="linearGradient-1">
      <stop stop-color="#3023AE" offset="0%"></stop>
      <stop stop-color="#C86DD7" offset="100%"></stop>
    </linearGradient>
  </defs>
  <g id="Page-1" stroke="none" stroke-width="1" fill="none" fill-rule="evenodd">
    <g id="Wings" fill-rule="nonzero">
      <g id="Oval" fill="url(#linearGradient-1)">
        <circle cx="512" cy="512" r="512"></circle>
      </g>
      <g id="W" transform="translate(257.000000, 349.000000)" fill="#FFFFFF">
        <g id="Group" transform="translate(248.142623, 202.373855) rotate(180.000000) translate(-248.142623, -202.373855) translate(0.765574, 0.242707)">
          <path d="M0,388.748397 L60.0630329,388.748397 L130.860735,199.869327 C135.461308,187.430741 139.337717,176.52568 142.489962,167.154143 C145.642205,157.782606 148.411069,149.007439 150.796551,140.828643 C156.760256,160.594067 162.97955,179.933512 169.45443,198.846978 C170.306387,201.232459 170.902758,202.851179 171.243541,203.703138 L246.386229,403.572464 L325.618316,199.869327 C329.36693,189.986615 332.902555,180.103904 336.225191,170.221191 C339.547827,160.33848 342.657473,150.370572 345.55413,140.317468 C347.258046,147.98509 349.558332,156.419473 352.454989,165.620619 C355.351646,174.821764 359.100261,185.726826 363.700834,198.335802 L433.987362,388.748397 L494.561568,388.748397 L349.643528,0 L264.277345,213.415458 C260.52873,222.957386 257.120898,232.115934 254.05385,240.8911 C250.986802,249.666267 248.260537,257.972857 245.875054,265.81087 C242.978398,255.757766 240.08174,246.343632 237.185083,237.568464 C234.288426,228.793298 231.306574,220.401512 228.239526,212.393109 L144.406867,0 L0,388.748397 Z" id="Shape"></path>
        </g>
      </g>
    </g>
  </g>
</svg>
